<svg width="30" height="30" viewBox="0 0 30 30" fill="none" xmlns="http://www.w3.org/2000/svg">
<rect width="29.8837" height="29.8837" fill="#93C121"/>
<path fill-rule="evenodd" clip-rule="evenodd" d="M7.20353 6.56458L9.471 6.48071C9.49749 6.8382 9.68793 7.48118 10.0861 8.01229C10.4612 8.5127 10.9521 8.83516 11.6185 8.83516C12.6424 8.83516 13.1475 8.44233 13.4369 8.03532C13.7699 7.56713 13.8891 6.96499 13.8891 6.56458H16.1597C16.1597 7.29946 15.9636 8.40025 15.2874 9.35117C14.5677 10.3633 13.3698 11.1057 11.6185 11.1057C10.1203 11.1057 9.03762 10.3499 8.3447 9.47224C8.14919 9.68486 7.93704 9.87513 7.71556 10.0429C6.7797 10.7518 5.62507 11.1057 4.68066 11.1057V8.83516C5.12383 8.83516 5.79828 8.64672 6.3446 8.23291C6.85832 7.8438 7.20353 7.30486 7.20353 6.56458Z" fill="white"/>
<path fill-rule="evenodd" clip-rule="evenodd" d="M22.8453 6.56458L20.5778 6.48071C20.5513 6.8382 20.3609 7.48118 19.9628 8.01229C19.5876 8.5127 19.0967 8.83516 18.4303 8.83516C17.4064 8.83516 16.9013 8.44233 16.6119 8.03532C16.2789 7.56713 16.1597 6.96499 16.1597 6.56458H13.8891C13.8891 7.29946 14.0852 8.40025 14.7615 9.35117C15.4812 10.3633 16.679 11.1057 18.4303 11.1057C19.9285 11.1057 21.0112 10.3499 21.7041 9.47224C21.8996 9.68486 22.1118 9.87513 22.3333 10.0429C23.2691 10.7518 24.4237 11.1057 25.3682 11.1057V8.83516C24.925 8.83516 24.2505 8.64672 23.7042 8.23291C23.1905 7.8438 22.8453 7.30486 22.8453 6.56458Z" fill="white"/>
<path fill-rule="evenodd" clip-rule="evenodd" d="M7.20353 12.7456L9.471 12.6617C9.49749 13.0192 9.68793 13.6622 10.0861 14.1933C10.4612 14.6937 10.9521 15.0162 11.6185 15.0162C12.6424 15.0162 13.1475 14.6234 13.4369 14.2163C13.7699 13.7482 13.8891 13.146 13.8891 12.7456H16.1597C16.1597 13.4805 15.9636 14.5813 15.2874 15.5322C14.5677 16.5443 13.3698 17.2868 11.6185 17.2868C10.1203 17.2868 9.03762 16.531 8.3447 15.6533C8.14919 15.8659 7.93704 16.0561 7.71556 16.2239C6.7797 16.9328 5.62507 17.2868 4.68066 17.2868V15.0162C5.12383 15.0162 5.79828 14.8277 6.3446 14.4139C6.85832 14.0248 7.20353 13.4859 7.20353 12.7456Z" fill="white"/>
<path fill-rule="evenodd" clip-rule="evenodd" d="M22.8453 12.7456L20.5778 12.6617C20.5513 13.0192 20.3609 13.6622 19.9628 14.1933C19.5876 14.6937 19.0967 15.0162 18.4303 15.0162C17.4064 15.0162 16.9013 14.6234 16.6119 14.2163C16.2789 13.7482 16.1597 13.146 16.1597 12.7456H13.8891C13.8891 13.4805 14.0852 14.5813 14.7615 15.5322C15.4812 16.5443 16.679 17.2868 18.4303 17.2868C19.9285 17.2868 21.0112 16.531 21.7041 15.6533C21.8996 15.8659 22.1118 16.0561 22.3333 16.2239C23.2691 16.9328 24.4237 17.2868 25.3682 17.2868V15.0162C24.925 15.0162 24.2505 14.8277 23.7042 14.4139C23.1905 14.0248 22.8453 13.4859 22.8453 12.7456Z" fill="white"/>
<path fill-rule="evenodd" clip-rule="evenodd" d="M7.20353 18.8005L9.471 18.7166C9.49749 19.0741 9.68793 19.7171 10.0861 20.2482C10.4612 20.7486 10.9521 21.071 11.6185 21.071C12.6424 21.071 13.1475 20.6782 13.4369 20.2712C13.7699 19.803 13.8891 19.2009 13.8891 18.8005H16.1597C16.1597 19.5354 15.9636 20.6361 15.2874 21.5871C14.5677 22.5992 13.3698 23.3416 11.6185 23.3416C10.1203 23.3416 9.03762 22.5858 8.3447 21.7081C8.14919 21.9207 7.93704 22.111 7.71556 22.2788C6.7797 22.9876 5.62507 23.3416 4.68066 23.3416V21.071C5.12383 21.071 5.79828 20.8826 6.3446 20.4688C6.85832 20.0797 7.20353 19.5408 7.20353 18.8005Z" fill="white"/>
<path fill-rule="evenodd" clip-rule="evenodd" d="M22.8453 18.8005L20.5778 18.7166C20.5513 19.0741 20.3609 19.7171 19.9628 20.2482C19.5876 20.7486 19.0967 21.071 18.4303 21.071C17.4064 21.071 16.9013 20.6782 16.6119 20.2712C16.2789 19.803 16.1597 19.2009 16.1597 18.8005H13.8891C13.8891 19.5354 14.0852 20.6361 14.7615 21.5871C15.4812 22.5992 16.679 23.3416 18.4303 23.3416C19.9285 23.3416 21.0112 22.5858 21.7041 21.7081C21.8996 21.9207 22.1118 22.111 22.3333 22.2788C23.2691 22.9876 24.4237 23.3416 25.3682 23.3416V21.071C24.925 21.071 24.2505 20.8826 23.7042 20.4688C23.1905 20.0797 22.8453 19.5408 22.8453 18.8005Z" fill="white"/>
</svg>
