<svg width="30" height="30" viewBox="0 0 30 30" fill="none" xmlns="http://www.w3.org/2000/svg">
<rect width="29.8837" height="29.8837" fill="#F3BF09"/>
<path d="M11.0102 11.2814H18.8734V13.7217H11.0102V11.2814Z" fill="white"/>
<path d="M11.0102 16.162H18.8734V18.6023H11.0102V16.162Z" fill="white"/>
<path fill-rule="evenodd" clip-rule="evenodd" d="M14.9418 23.4829C19.6589 23.4829 23.4829 19.6589 23.4829 14.9418C23.4829 10.2247 19.6589 6.40076 14.9418 6.40076C10.2247 6.40076 6.40076 10.2247 6.40076 14.9418C6.40076 19.6589 10.2247 23.4829 14.9418 23.4829ZM14.9418 25.9232C21.0067 25.9232 25.9232 21.0067 25.9232 14.9418C25.9232 8.87698 21.0067 3.96045 14.9418 3.96045C8.87698 3.96045 3.96045 8.87698 3.96045 14.9418C3.96045 21.0067 8.87698 25.9232 14.9418 25.9232Z" fill="white"/>
</svg>
