<svg width="30" height="30" viewBox="0 0 30 30" fill="none" xmlns="http://www.w3.org/2000/svg">
<rect width="29.8837" height="29.8837" fill="#6EC4C5"/>
<path d="M11.5995 6.06354L10.0771 7.58593L14.9211 12.7067L19.765 7.86273L17.9658 6.06354L15.8899 8.13953V2.88037H13.6755V8.13953L11.5995 6.06354Z" fill="white"/>
<path d="M18.2426 23.6402L19.765 22.1178L14.9211 16.9971L10.0771 21.841L11.8763 23.6402L13.9523 21.5642V26.8234H16.1667V21.5642L18.2426 23.6402Z" fill="white"/>
<path d="M23.6402 11.5995L22.1178 10.0771L16.9971 14.9211L21.841 19.765L23.6402 17.9658L21.5642 15.8899H26.8234V13.6755H21.5642L23.6402 11.5995Z" fill="white"/>
<path d="M6.06354 18.2426L7.58593 19.765L12.7067 14.9211L7.86273 10.0771L6.06355 11.8763L8.13953 13.9523L2.88037 13.9523L2.88037 16.1667L8.13953 16.1667L6.06354 18.2426Z" fill="white"/>
</svg>
